<svg id="Capa_1" data-name="Capa 1" xmlns="http://www.w3.org/2000/svg" viewBox="0 0 425.3 512"><defs><style>.cls-1{fill:#fff;}</style></defs><title>filleduser</title><path class="cls-1" d="M447.86,491.21H64.13c.9-73.12,44.14-140.19,110-171.09l2.12-.83.24-.24c5.17-2.36,10.49-4.51,15.9-6.41l1.71-.61c2.94-1,5.87-1.95,8.91-2.82,3.79-1.11,7.65-2.11,11.53-3,2-.42,4-.83,6.07-1.21,1.64-.3,3.28-.61,4.93-.87l.81-.15c3-.47,6-.89,8.92-1.22l6.79-.59a182.69,182.69,0,0,1,27.7,0l6.6.55c1.63.19,3.27.41,5.25.69l2.38.34c2.48.37,5,.79,7.46,1.26l1.16.22c1.4.26,2.79.53,4.11.81,4.09.89,8.11,1.95,12.1,3.1,2.64.77,5.26,1.56,7.81,2.41,3.24,1.08,6.44,2.26,9.61,3.51s6,2.48,9,3.84l.52.24A192.39,192.39,0,0,1,447.86,491.21Z" transform="translate(-43.35 0)"/><path class="cls-1" d="M368.13,131.61l-.07,1.09a111.78,111.78,0,0,1-40.78,86.08l-4.94,3.76c-1.1.9-2.21,1.79-3.59,2.75-2.49,1.69-5.13,3.21-7.81,4.73l-1.48.91c-2.25,1.2-4.61,2.27-7.06,3.36l-2.75,1.33c-1.58.65-3.24,1.23-4.88,1.8l-3.43,1.23c-.66.25-1.34.52-2,.72-1.28.39-2.59.7-3.89,1l-4.14,1.06c-.9.24-1.78.49-2.57.65-1.38.27-2.79.46-4.19.66l-3.95.59c-.95.16-1.91.33-3,.43-3.46.37-6.94.57-10.47.6h-1A111.4,111.4,0,0,1,223,239.32c-.92-.29-1.83-.66-2.73-1l-3.91-1.42c-1.21-.43-2.41-.84-3.58-1.33a111.65,111.65,0,0,1-68.26-103c0-1.76.14-3.48.26-5.2l.13-1.86A111.83,111.83,0,0,1,256.28,20.77C317.93,20.77,368.07,70.92,368.13,131.61Z" transform="translate(-43.35 0)"/><path class="cls-1" d="M64.13,491.21H447.86a192.39,192.39,0,0,0-112.06-172l-.52-.24q-4.45-2-9-3.84c-3.17-1.25-6.37-2.43-9.61-3.51-2.55-.85-5.17-1.64-7.81-2.41-4-1.15-8-2.21-12.1-3.1-1.32-.28-2.71-.55-4.11-.81l-1.16-.22c-2.5-.47-5-.89-7.46-1.26l-2.38-.34c-2-.28-3.62-.5-5.25-.69l-6.6-.55a182.69,182.69,0,0,0-27.7,0l-6.79.59c-3,.33-6,.75-8.92,1.22l-.81.15c-1.65.26-3.29.57-4.93.87-2.06.38-4.07.79-6.07,1.21-3.88.87-7.74,1.87-11.53,3-3,.87-6,1.8-8.91,2.82l-1.71.61c-5.41,1.9-10.73,4.05-15.9,6.41l-.24.24-2.12.83C108.27,351,65,418.09,64.13,491.21Zm404.52,2.31c0,1.94-.11,3.81-.24,5.71L467.84,512H44.14l-.55-12.92c-.12-1.85-.24-3.69-.24-5.56,0-81.44,47.46-156.5,121.07-191.73l0,0,1.68-.8c6.3-2.92,12.8-5.58,19.34-7.9l2.14-.77c3.09-1.06,6.37-2.11,9.69-3.06,4.17-1.22,8.49-2.33,12.83-3.3,2.24-.49,4.48-.94,6.76-1.34,2-.39,4.12-.77,6.2-1.12l.89-.12c3.05-.49,6.09-.91,9.15-1.24l3.34-.3,1.33-.1,2.85-.24a217.88,217.88,0,0,1,29.91-.08l8.06.66c2.37.27,4.65.59,6.93.94l.79.1.08,0,.79.13c2.75.4,5.47.87,8.18,1.4l1.08.21c1.58.28,3.17.59,4.73.91,4.59,1,9.05,2.17,13.46,3.45,2.9.85,5.76,1.72,8.61,2.66q5.4,1.81,10.66,3.91c3.2,1.26,6.35,2.6,9.48,4l1.31.59A213.21,213.21,0,0,1,468.65,493.52Z" transform="translate(-43.35 0)"/><path class="cls-1" d="M388.86,132.56l-.07,1.1c0,38.52-17.57,75.66-48.15,101l-5.31,4.14c-1.54,1.22-3.1,2.46-4.73,3.56-3.15,2.15-6.25,4-9.37,5.74l-1.8,1.08c-2.79,1.5-5.59,2.79-8.41,4l-.92.46c-.77.38-1.55.75-2.35,1.09-2.05.86-4.11,1.59-6.15,2.3l-2.85,1c-1.05.4-2.11.79-3.19,1.14-1.73.54-3.49,1-5.25,1.39l-3.55.9c-1.26.34-2.53.69-3.84,1-1.91.37-3.74.64-5.57.88l-3.25.49c-1.46.25-2.92.49-4.41.63a130.72,130.72,0,0,1-13.39.69l-1.05,0a131.28,131.28,0,0,1-38.5-6c-1.33-.41-2.64-.9-3.94-1.4l-3.37-1.23c-1.61-.57-3.22-1.14-4.78-1.79a132.31,132.31,0,0,1-80.94-122.13c0-2.24.14-4.43.3-6.63l.12-1.72A132.64,132.64,0,0,1,256.29,0C329.39,0,388.86,59.46,388.86,132.56Zm-20.8.14.07-1.09c-.06-60.69-50.2-110.84-111.85-110.84A111.83,111.83,0,0,0,144.86,125.51l-.13,1.86c-.12,1.72-.26,3.44-.26,5.2a111.65,111.65,0,0,0,68.26,103c1.17.49,2.37.9,3.58,1.33l3.91,1.42c.9.34,1.81.71,2.73,1a111.4,111.4,0,0,0,33.21,5.05h1c3.53,0,7-.23,10.47-.6,1.07-.1,2-.27,3-.43l3.95-.59c1.4-.2,2.81-.39,4.19-.66.79-.16,1.67-.41,2.57-.65l4.14-1.06c1.3-.32,2.61-.63,3.89-1,.65-.2,1.33-.47,2-.72l3.43-1.23c1.64-.57,3.3-1.15,4.88-1.8l2.75-1.33c2.45-1.09,4.81-2.16,7.06-3.36l1.48-.91c2.68-1.52,5.32-3,7.81-4.73,1.38-1,2.49-1.85,3.59-2.75l4.94-3.76A111.78,111.78,0,0,0,368.06,132.7Z" transform="translate(-43.35 0)"/></svg>